<?xml version="1.0" encoding="UTF-8" standalone="no"?>
<!-- Created with Inkscape (http://www.inkscape.org/) -->

<svg
   width="857.92816"
   height="381.96524"
   viewBox="0 0 226.99349 101.06164"
   version="1.1"
   id="svg1"
   xml:space="preserve"
   inkscape:version="1.3 (0e150ed6c4, 2023-07-21)"
   sodipodi:docname="dialog_mock.svg"
   xmlns:inkscape="http://www.inkscape.org/namespaces/inkscape"
   xmlns:sodipodi="http://sodipodi.sourceforge.net/DTD/sodipodi-0.dtd"
   xmlns="http://www.w3.org/2000/svg"
   xmlns:svg="http://www.w3.org/2000/svg"><sodipodi:namedview
     id="namedview1"
     pagecolor="#ffffff"
     bordercolor="#000000"
     borderopacity="0.25"
     inkscape:showpageshadow="2"
     inkscape:pageopacity="0.0"
     inkscape:pagecheckerboard="0"
     inkscape:deskcolor="#d1d1d1"
     inkscape:document-units="px"
     inkscape:zoom="0.5"
     inkscape:cx="1148"
     inkscape:cy="511"
     inkscape:window-width="1920"
     inkscape:window-height="1129"
     inkscape:window-x="-8"
     inkscape:window-y="-8"
     inkscape:window-maximized="1"
     inkscape:current-layer="layer1" /><defs
     id="defs1" /><g
     inkscape:label="Lager 1"
     inkscape:groupmode="layer"
     id="layer1"
     transform="translate(-147.22359,-79.4887)"><path
       id="rect17"
       style="fill:#fff9e4;stroke-width:0.273681"
       d="m 150.01874,81.756256 c 77.43086,-1.592099 182.89302,-0.748355 222.65628,-0.280633 -0.32613,32.505007 -1.52125,65.010007 -0.93544,97.515007 -73.34783,1.38134 -145.89306,1.92343 -220.96016,-1.35599 -2.7303,-2.27833 1.12155,-66.25381 -0.76068,-95.878384 z"
       sodipodi:nodetypes="ccccc"
       inkscape:export-filename="..\Documents\GitHub\chicken_heist\chicken-heist\art\insert_coin.svg"
       inkscape:export-xdpi="96"
       inkscape:export-ydpi="96" /><path
       id="path1"
       style="fill:#000000;fill-opacity:1;stroke-width:0.132292"
       inkscape:label="Outline"
       d="m 371.19699,79.488706 -221.91461,1.245402 c -2.19821,7.011688 -1.12065,24.524132 0.71623,33.434732 -1.93847,8.34279 -2.29371,27.94723 -2.59622,36.99111 0.62806,0.16786 1.12498,0.31434 1.83709,0.44803 -1.0639,8.4391 -1.48479,16.65624 -2.01589,25.15454 4.37693,3.30007 7.76119,2.82747 11.27941,2.86442 42.46822,1.46962 168.86351,0.75147 211.61964,0.72399 1.21733,0.0365 2.43295,0.0906 4.0287,-3.13314 -0.4116,-18.05888 1.12338,-46.79353 -1.61128,-64.74188 l 1.61128,-0.44752 -0.26872,-30.122778 c -0.56514,-2.043333 -1.6356,-2.191894 -2.68563,-2.416906 z m -0.78031,2.436543 c 0.86588,0.06409 1.69751,0.626371 1.73581,1.915646 l -0.34106,26.721935 -9.44801,2.15183 4.5837,-0.28061 -7.57731,1.68363 11.38897,-0.18707 c 0.56367,-0.0101 0.77303,0.22193 0.78703,0.88781 l 0.4501,35.28733 c 0.002,0.0682 -0.0345,0.15685 -0.12144,0.17415 l -12.03699,2.39107 4.3031,0.65474 -5.51905,0.93534 12.71034,0.99426 c 0.25692,0.0212 0.38079,0.18895 0.38137,0.50281 l -0.0729,18.54098 c -0.0446,3.54952 -1.28081,4.36597 -2.81172,4.50567 l -212.8361,-1.06402 c -2.24019,-0.3747 -4.50909,-0.48683 -6.31693,-2.28823 l 1.6397,-19.50733 14.0317,-3.83543 -15.62179,-1.40353 1.12242,-33.6006 15.06057,-0.7426 c -4.48011,-1.00721 -9.12393,-2.22561 -14.21825,-4.02251 -1.97349,-5.48021 -0.82451,-28.067135 -0.4718,-30.046818 0.0252,-0.141697 0.0872,-0.182552 0.18241,-0.189652 z"
       sodipodi:nodetypes="ccccccccccccccccccccccccccccccccccccccscc" /><g
       id="g56"
       transform="translate(-26.848377,-5.7137585)"><path
         style="fill:#c3bdb1;fill-opacity:1;stroke:none;stroke-width:0.132292;stroke-opacity:1"
         id="path25"
         d="m 220.39001,103.84896 c 9.57329,0.48709 19.16317,0.31581 28.7402,0.0559 0,0 -0.70422,-0.5086 -0.70422,-0.5086 v 0 c -9.61425,0.28359 -19.24671,0.45193 -28.85316,-0.15114 z" /><path
         style="fill:#c3bdb1;fill-opacity:1;stroke:none;stroke-width:0.132292;stroke-opacity:1"
         id="path26"
         d="m 265.93097,100.84568 c 5.72465,-0.0255 11.44913,0.14049 17.17399,0.0809 1.7921,-0.0186 3.58364,-0.0733 5.37546,-0.10994 5.49904,-0.16438 10.98153,-0.60605 16.44797,-1.207545 0,0 -0.78008,-0.553365 -0.78008,-0.553365 v 0 c -5.43724,0.639201 -10.8937,1.0977 -16.36861,1.25392 -1.79414,0.0342 -3.58802,0.0876 -5.38242,0.1026 -5.7684,0.0482 -11.53549,-0.13607 -17.30318,-0.17457 z" /><path
         style="fill:#c3bdb1;fill-opacity:1;stroke:none;stroke-width:0.132292;stroke-opacity:1"
         id="path27"
         d="m 257.6681,109.54373 c 1.25322,-0.047 2.37959,-0.0956 3.65786,-0.10483 2.59834,-0.0187 5.45827,0.043 8.02988,0.0877 1.81081,0.0314 3.62156,0.0659 5.43234,0.0989 1.94724,0.0337 3.89448,0.0674 5.84172,0.10108 8.04565,0.13437 16.0919,0.11654 24.13699,-0.0306 0.54766,-0.0113 1.09532,-0.0226 1.64299,-0.034 0,0 -0.81004,-0.58555 -0.81004,-0.58555 v 0 c -0.54257,0.0149 -1.08514,0.0298 -1.6277,0.0447 -8.0078,0.19769 -16.0179,0.251 -24.02743,0.10566 -7.80785,-0.14639 -3.77602,-0.0657 -11.31019,-0.22639 -2.63176,-0.0561 -5.44919,-0.13321 -8.0985,-0.13313 -1.20584,4e-5 -2.49189,0.0393 -3.70981,0.0715 z" /><path
         style="fill:#c3bdb1;fill-opacity:1;stroke:none;stroke-width:0.132292;stroke-opacity:1"
         id="path28"
         d="m 266.33539,116.45743 c 7.80815,0.13164 15.61525,0.23312 23.42467,0.21881 1.52934,5.3e-4 3.05868,10e-4 4.58802,0.002 0,0 -0.72312,-0.52523 -0.72312,-0.52523 v 0 c -1.52251,0.005 -3.04501,0.009 -4.56752,0.0135 -7.85598,0.018 -15.70968,-0.0975 -23.56261,-0.31924 z" /><path
         style="fill:#c3bdb1;fill-opacity:1;stroke:none;stroke-width:0.132292;stroke-opacity:1"
         id="path29"
         d="m 259.19978,106.47836 c 4.34493,0.61308 8.7517,0.72494 13.13195,0.89313 6.54824,0.22828 13.06305,0.9673 19.58057,1.59736 4.54938,0.4398 5.45749,0.51751 9.85196,0.91946 0,0 -0.71736,-0.53111 -0.71736,-0.53111 v 0 c -4.46034,-0.39624 -5.19654,-0.45356 -9.82526,-0.90059 -6.53916,-0.63153 -13.07353,-1.38984 -19.64269,-1.63663 -4.40776,-0.18081 -8.84886,-0.29375 -13.21322,-0.97591 z" /><path
         style="fill:#c3bdb1;fill-opacity:1;stroke:none;stroke-width:0.132292;stroke-opacity:1"
         id="path30"
         d="m 223.86366,97.107861 c 6.76442,-0.207732 13.53621,-0.147241 20.30218,-0.04272 1.02223,0.02384 2.04445,0.04766 3.06668,0.0715 0,0 -0.76614,-0.559062 -0.76614,-0.559062 v 0 c -1.01518,-0.01844 -2.03035,-0.03686 -3.04553,-0.0553 -6.79802,-0.08481 -13.59925,-0.145602 -20.39693,-0.01844 z" /><path
         style="fill:#c3bdb1;fill-opacity:1;stroke:none;stroke-width:0.132292;stroke-opacity:1"
         id="path31"
         d="m 223.38356,101.30783 c 0.37912,-0.0306 0.75744,-0.0735 1.13735,-0.0919 2.00415,-0.0972 3.11259,-0.0708 5.24313,-0.0471 4.12259,0.0459 8.24297,0.16936 12.364,0.28557 4.73027,0.14413 2.49583,0.0722 6.70339,0.21327 0,0 -0.76868,-0.5621 -0.76868,-0.5621 v 0 c -4.18014,-0.11721 -1.95801,-0.0552 -6.66637,-0.18589 -4.13188,-0.11564 -8.26336,-0.24155 -12.39644,-0.30703 -2.15618,-0.0342 -3.27601,-0.0693 -5.30622,0.0118 -0.38799,0.0155 -0.77464,0.0552 -1.16196,0.0828 z" /><path
         style="fill:#c3bdb1;fill-opacity:1;stroke:none;stroke-width:0.132292;stroke-opacity:1"
         id="path32"
         d="m 194.08792,117.60522 c 1.09745,0.11083 2.19553,0.21551 3.29234,0.33247 7.05683,0.75255 14.10513,1.5071 21.1821,2.05794 5.83477,0.45416 11.93438,0.8177 17.77394,1.18642 11.88897,0.89565 6.07847,0.42826 17.43213,1.39449 0,0 -0.60997,-0.45104 -0.60997,-0.45104 v 0 c -11.33324,-0.9429 -5.52836,-0.48084 -17.41514,-1.38003 -5.92922,-0.37584 -11.86587,-0.72798 -17.78867,-1.19946 -7.12883,-0.5675 -14.22467,-1.35119 -21.32754,-2.16778 -1.11699,-0.12841 -2.23492,-0.24849 -3.35238,-0.37273 z" /><path
         style="fill:#c3bdb1;fill-opacity:1;stroke:none;stroke-width:0.132292;stroke-opacity:1"
         id="path33"
         d="m 215.37945,137.36119 c 6.5339,-0.0563 13.06799,0.0497 19.59934,0.22516 0,0 -0.72772,-0.53165 -0.72772,-0.53165 v 0 c -6.57104,-0.1692 -13.14357,-0.27684 -19.71679,-0.30756 z" /><path
         style="fill:#c3bdb1;fill-opacity:1;stroke:none;stroke-width:0.132292;stroke-opacity:1"
         id="path34"
         d="m 213.65315,149.26042 c 10.71029,-0.16201 21.41719,0.0772 32.12091,0.43395 2.15817,0.0862 4.31633,0.17242 6.4745,0.25863 0,0 -0.66617,-0.48795 -0.66617,-0.48795 v 0 c -2.15103,-0.0808 -4.30206,-0.16161 -6.45309,-0.24242 -10.76447,-0.35901 -21.53074,-0.6036 -32.30198,-0.56222 z" /><path
         style="fill:#c3bdb1;fill-opacity:1;stroke:none;stroke-width:0.132292;stroke-opacity:1"
         id="path35"
         d="m 204.44535,155.7847 c 0.56291,0.1314 1.11731,0.3069 1.68872,0.39419 3.40571,0.52028 8.55795,0.95652 11.73625,1.21884 3.03953,0.25087 6.08087,0.4802 9.12327,0.69349 10.9594,0.76831 11.76936,0.7515 23.28225,1.34039 11.06035,0.51879 22.13023,0.72271 33.20011,0.88287 0,0 -0.58383,-0.42528 -0.58383,-0.42528 v 0 c -11.03813,-0.11274 -22.07657,-0.27818 -33.10424,-0.81604 -11.13842,-0.60225 -12.73662,-0.63007 -23.3801,-1.41459 -3.062,-0.22569 -6.12281,-0.46898 -9.18132,-0.73794 -3.66059,-0.32191 -8.15219,-0.72699 -11.88364,-1.34555 -0.58232,-0.0965 -1.14644,-0.28164 -1.71966,-0.42246 z" /><path
         style="fill:#c3bdb1;fill-opacity:1;stroke:none;stroke-width:0.132292;stroke-opacity:1"
         id="path36"
         d="m 259.70459,137.44897 c 10.97019,1.01747 21.97674,1.77922 33.00076,1.38722 2.69556,-0.0958 5.38477,-0.32414 8.07717,-0.48621 2.40841,-0.28011 4.81683,-0.56021 7.22524,-0.84032 0,0 -0.65042,-0.46104 -0.65042,-0.46104 v 0 c -2.39952,0.28465 -4.79903,0.56929 -7.19855,0.85393 -2.68832,0.16347 -5.37337,0.39517 -8.06498,0.4904 -11.09411,0.39252 -22.17429,-0.39877 -33.20241,-1.5437 z" /><path
         style="fill:#c3bdb1;fill-opacity:1;stroke:none;stroke-width:0.132292;stroke-opacity:1"
         id="path37"
         d="m 254.9938,130.07837 c 8.38769,-0.7487 16.81432,-0.87231 25.22157,-1.2846 2.12001,-0.10396 4.23852,-0.23635 6.35778,-0.35452 0,0 -0.67383,-0.48381 -0.67383,-0.48381 v 0 c -2.11649,0.11969 -4.23212,0.25554 -6.34946,0.35907 -8.46088,0.41372 -16.93824,0.52345 -25.38659,1.17476 z" /><path
         style="fill:#c3bdb1;fill-opacity:1;stroke:none;stroke-width:0.132292;stroke-opacity:1"
         id="path38"
         d="m 278.95348,151.07396 c 5.64841,0.84312 11.34498,1.36333 17.05204,1.57472 3.77413,0.1398 6.86298,0.11924 10.62437,0.13128 2.53678,-0.0188 5.8492,-0.0708 8.42659,0.008 1.03473,0.0315 2.06728,0.11385 3.10093,0.17077 0,0 -0.76327,-0.56064 -0.76327,-0.56064 v 0 c -1.02702,-0.0504 -2.05313,-0.12499 -3.08104,-0.15121 -2.51917,-0.0643 -5.91998,-0.005 -8.38978,0.0198 -3.83955,-0.008 -6.75528,0.0195 -10.61347,-0.12887 -5.74717,-0.22104 -11.48547,-0.76134 -17.16477,-1.6725 z" /><path
         style="fill:#c3bdb1;fill-opacity:1;stroke:none;stroke-width:0.132292;stroke-opacity:1"
         id="path39"
         d="m 278.76725,161.85961 c 4.55254,0.59478 9.13882,0.47046 13.71368,0.30231 5.4064,-0.19871 8.9528,-0.46041 14.31998,-0.80311 0,0 -0.65609,-0.47027 -0.65609,-0.47027 v 0 c -5.4151,0.35168 -8.86703,0.61942 -14.32847,0.79252 -4.62677,0.14664 -9.26884,0.22242 -13.86483,-0.43252 z" /><path
         style="fill:#c3bdb1;fill-opacity:1;stroke:none;stroke-width:0.132292;stroke-opacity:1"
         id="path40"
         d="m 259.00554,143.97042 c 3.37441,-0.004 6.74753,0.16121 10.12184,0.15511 2.16544,-0.004 4.33088,-0.0397 6.49564,-0.0941 2.38774,-0.06 4.77411,-0.16605 7.16117,-0.24907 0,0 -0.64911,-0.46827 -0.64911,-0.46827 v 0 c -2.39304,0.078 -4.78535,0.18359 -7.17913,0.23385 -5.59737,0.11752 -11.18643,-0.0282 -16.78084,-0.18087 z" /><path
         style="fill:#c3bdb1;fill-opacity:1;stroke:none;stroke-width:0.132292;stroke-opacity:1"
         id="path41"
         d="m 220.68866,143.14536 c 0.64724,-0.008 1.29443,-0.0228 1.94172,-0.024 5.22611,-0.01 10.44839,0.0249 15.67468,-0.0581 5.688,-0.0904 10.19121,-0.22305 15.89839,-0.37207 0,0 -0.61993,-0.44799 -0.61993,-0.44799 v 0 c -6.05463,0.15129 -9.91826,0.26784 -15.9388,0.34112 -5.27378,0.0642 -10.54091,0.002 -15.81384,-0.0431 -0.66063,-0.006 -1.32131,6e-5 -1.98196,9e-5 z" /><path
         style="fill:#c3bdb1;fill-opacity:1;stroke:none;stroke-width:0.132292;stroke-opacity:1"
         id="path42"
         d="m 204.75297,129.88277 c 0.49342,-0.0316 0.98618,-0.0759 1.48025,-0.0948 2.73541,-0.10425 4.67648,-0.0862 7.55503,-0.0292 5.11734,0.1013 10.18935,0.32393 15.3095,0.4511 3.49785,0.0869 6.99648,0.13869 10.49473,0.20804 3.47892,0.0472 6.95784,0.0943 10.43676,0.14152 0,0 -0.55209,-0.40226 -0.55209,-0.40226 v 0 c -3.47796,-0.0467 -6.95592,-0.0934 -10.43387,-0.1401 -3.51646,-0.083 -7.0334,-0.14737 -10.54936,-0.24897 -8.18836,-0.2366 -16.39346,-0.83336 -24.58591,-0.48586 z" /><path
         style="fill:#c3bdb1;fill-opacity:1;stroke:none;stroke-width:0.132292;stroke-opacity:1"
         id="path43"
         d="m 221.5741,116.51468 c 8.61439,0.43823 17.23962,0.54893 25.86353,0.55953 0,0 -0.67156,-0.48804 -0.67156,-0.48804 v 0 c -8.67283,-0.01 -17.349,-0.12759 -26.00748,-0.67009 z" /><path
         style="fill:#c3bdb1;fill-opacity:1;stroke:none;stroke-width:0.132292;stroke-opacity:1"
         id="path29-6"
         d="m 334.90728,170.08903 c 4.34493,0.61308 8.7517,0.72494 13.13195,0.89313 6.54824,0.22828 13.06305,0.9673 19.58057,1.59736 4.54938,0.4398 5.45749,0.51751 9.85196,0.91946 0,0 -0.71736,-0.53111 -0.71736,-0.53111 v 0 c -4.46034,-0.39624 -5.19654,-0.45356 -9.82526,-0.90059 -6.53916,-0.63153 -13.07353,-1.38984 -19.64269,-1.63663 -4.40776,-0.18081 -8.84886,-0.29375 -13.21322,-0.97591 z" /><path
         style="fill:#c3bdb1;fill-opacity:1;stroke:none;stroke-width:0.132292;stroke-opacity:1"
         id="path44"
         d="m 267.5073,126.97207 c 0.37068,-0.0305 0.74013,-0.0881 1.11205,-0.0914 1.92455,-0.017 3.85391,0.1794 5.76574,0.3474 1.53097,0.13454 3.05977,0.29301 4.59065,0.42851 5.33125,0.4719 5.53146,0.46423 10.96371,0.85823 7.19682,0.44114 3.70339,0.25096 10.47984,0.57875 0,0 -0.71069,-0.52148 -0.71069,-0.52148 v 0 c -6.75612,-0.31047 -3.2702,-0.12547 -10.45724,-0.56491 -5.41999,-0.39941 -5.66878,-0.39259 -10.99221,-0.88171 -1.54143,-0.14163 -3.08057,-0.30745 -4.62189,-0.45031 -1.98058,-0.18358 -3.86699,-0.39013 -5.84589,-0.3863 -0.38072,8e-4 -0.75941,0.0556 -1.13911,0.0833 z" /><path
         style="fill:#c3bdb1;fill-opacity:1;stroke:none;stroke-width:0.132292;stroke-opacity:1"
         id="path45"
         d="m 195.18091,93.934147 c 5.92001,-0.58302 11.88539,-0.566029 17.82821,-0.657196 0,0 -0.71147,-0.515276 -0.71147,-0.515276 v 0 c -5.99021,0.0888 -11.99879,0.04697 -17.97138,0.565877 z" /><path
         style="fill:#c3bdb1;fill-opacity:1;stroke:none;stroke-width:0.132292;stroke-opacity:1"
         id="path46"
         d="m 205.37119,100.87888 c 5.62218,0.0518 11.24533,0.0236 16.86811,0.0589 0,0 -0.72444,-0.52705 -0.72444,-0.52705 v 0 c -5.65875,-0.0372 -11.31973,-0.0147 -16.97684,-0.14299 z" /><path
         style="fill:#c3bdb1;fill-opacity:1;stroke:none;stroke-width:0.132292;stroke-opacity:1"
         id="path47"
         d="m 298.61455,95.290766 c 4.02724,-0.05977 8.02131,-0.60143 12.00316,-1.158364 0,0 -0.77839,-0.549159 -0.77839,-0.549159 v 0 c -4.00049,0.56047 -8.01696,1.099032 -12.06533,1.096822 z" /><path
         style="fill:#c3bdb1;fill-opacity:1;stroke:none;stroke-width:0.132292;stroke-opacity:1"
         id="path48"
         d="m 295.90634,124.3956 c 0.49784,0.018 0.99606,0.0275 1.49351,0.0541 3.79953,0.2025 7.59608,0.47421 11.39506,0.68812 4.09005,0.23029 5.68982,0.30248 9.73559,0.50224 1.34509,0.0528 2.69017,0.10562 4.03525,0.15843 0,0 -0.73703,-0.53973 -0.73703,-0.53973 v 0 c -1.33805,-0.0481 -2.6761,-0.0961 -4.01415,-0.14422 -4.16536,-0.20113 -5.51552,-0.25605 -9.73448,-0.50273 -3.83206,-0.22405 -7.65914,-0.51656 -11.49001,-0.75565 -0.5083,-0.0317 -1.01743,-0.0484 -1.52614,-0.0725 z" /><path
         style="fill:#c3bdb1;fill-opacity:1;stroke:none;stroke-width:0.132292;stroke-opacity:1"
         id="path49"
         d="m 196.09605,143.71085 c 3.09586,-0.076 6.18261,-0.33084 9.27488,-0.4782 0.39975,-0.0141 0.79951,-0.0282 1.19926,-0.0423 0,0 -0.82375,-0.59361 -0.82375,-0.59361 v 0 c -0.39655,0.0169 -0.7931,0.0337 -1.18966,0.0506 -3.10106,0.16251 -6.19806,0.41703 -9.30497,0.45015 z" /><path
         style="fill:#c3bdb1;fill-opacity:1;stroke:none;stroke-width:0.132292;stroke-opacity:1"
         id="path50"
         d="m 188.56297,150.06219 c 0.7551,-0.005 1.07927,-0.0128 1.93121,0.0223 4.07892,0.16772 8.15565,0.4235 12.23349,0.61858 0,0 -0.76051,-0.55805 -0.76051,-0.55805 v 0 c -4.0987,-0.19126 -8.19303,-0.45504 -12.2908,-0.65784 -0.78996,-0.0391 -1.23429,-0.0366 -1.96132,-0.041 z" /><path
         style="fill:#c3bdb1;fill-opacity:1;stroke:none;stroke-width:0.132292;stroke-opacity:1"
         id="path51"
         d="m 191.78527,160.64218 c 5.29154,-0.0318 10.58322,-0.0308 15.87484,-0.0249 0.81775,0.0232 1.63551,0.0465 2.45327,0.0697 0,0 -0.78354,-0.57238 -0.78354,-0.57238 v 0 c -0.81332,-0.019 -1.62663,-0.0379 -2.43995,-0.0569 -5.31444,0.006 -10.62896,0.007 -15.94334,-0.0249 z" /><path
         style="fill:#c3bdb1;fill-opacity:1;stroke:none;stroke-width:0.132292;stroke-opacity:1"
         id="path52"
         d="m 259.4713,156.41219 c 4.99537,0.12097 9.99089,0.23907 14.98663,0.34695 0,0 -0.76459,-0.55793 -0.76459,-0.55793 v 0 c -5.02421,-0.0998 -10.04807,-0.22123 -15.06997,-0.40507 z" /><path
         style="fill:#c3bdb1;fill-opacity:1;stroke:none;stroke-width:0.132292;stroke-opacity:1"
         id="path53"
         d="m 269.80616,149.53002 c 2.25574,-0.0139 4.51154,-0.0147 6.76731,-0.0157 0,0 -0.79633,-0.57857 -0.79633,-0.57857 v 0 c -2.27021,-0.001 -4.54044,-0.002 -6.81062,-0.0157 z" /><path
         style="fill:#c3bdb1;fill-opacity:1;stroke:none;stroke-width:0.132292;stroke-opacity:1"
         id="path54"
         d="m 309.50873,148.47436 c 1.80352,0.0749 3.5828,-0.21206 5.351,-0.52797 0,0 -0.83919,-0.58725 -0.83919,-0.58725 v 0 c -1.77046,0.31853 -3.55305,0.59211 -5.35881,0.49983 z" /><path
         style="fill:#c3bdb1;fill-opacity:1;stroke:none;stroke-width:0.132292;stroke-opacity:1"
         id="path55"
         d="m 254.57129,93.934276 c 0.3649,-0.01646 0.72944,-0.04851 1.09471,-0.0494 3.45013,-0.0084 6.92063,0.289412 10.35755,0.528611 2.30225,0.160229 7.83087,0.584343 10.18575,0.763466 1.42505,0.109908 2.85009,0.219813 4.27514,0.329721 0,0 -0.72776,-0.537183 -0.72776,-0.537183 v 0 c -1.41833,-0.104945 -2.83665,-0.209886 -4.25497,-0.314831 -3.39673,-0.254809 -6.79285,-0.517789 -10.19008,-0.765807 -3.47788,-0.25391 -6.98066,-0.576844 -10.472,-0.5994 -0.37262,-0.0024 -0.74482,0.02532 -1.11723,0.03797 z" /><path
         style="fill:#c3bdb1;stroke-width:0.132292"
         id="path2"
         d="m 195.72199,175.91774 c 0.3689,0.0557 0.7397,0.0999 1.10668,0.167 0.67038,0.12262 1.33315,0.2854 2.00459,0.40209 2.68215,0.46616 5.8981,0.92756 8.55679,1.20808 5.03261,0.53099 6.9637,0.56345 12.13323,0.84037 13.72475,0.68841 27.40982,1.96541 41.1213,2.86132 0,0 -0.7147,-0.52622 -0.7147,-0.52622 v 0 c -13.70502,-0.84563 -27.37935,-2.12424 -41.09259,-2.83925 -5.16396,-0.28821 -7.13969,-0.3257 -12.16847,-0.87457 -2.89047,-0.31548 -5.76559,-0.75264 -8.62632,-1.26877 -0.68022,-0.12273 -1.35194,-0.28938 -2.03141,-0.41615 -0.37441,-0.0699 -0.75289,-0.11572 -1.12934,-0.17357 z" /><path
         style="fill:#c3bdb1;stroke-width:0.132292"
         id="path3"
         d="m 254.86593,170.85721 c 5.93942,0.23461 11.88006,0.003 17.81449,-0.24571 1.35312,-0.0635 2.70624,-0.12693 4.05936,-0.19039 0,0 -0.75309,-0.54168 -0.75309,-0.54168 v 0 c -1.34983,0.0656 -2.69966,0.13119 -4.04949,0.19678 -5.96951,0.24473 -11.94673,0.46377 -17.91924,0.16492 z" /><path
         style="fill:#c3bdb1;stroke-width:0.132292"
         id="path4"
         d="m 277.39387,180.05178 c 0.42629,0.0949 0.84914,0.2068 1.27887,0.28461 2.69088,0.48722 5.44072,0.68635 8.15948,0.93865 4.88061,0.45292 3.59048,0.33245 8.72537,0.71507 2.39472,0.1627 5.81584,0.36939 8.24299,0.62869 1.11062,0.11865 2.21483,0.29132 3.32221,0.43698 0,0 -0.76181,-0.56866 -0.76181,-0.56866 v 0 c -1.10363,-0.14109 -2.20419,-0.30841 -3.31084,-0.42326 -2.33312,-0.24214 -5.93571,-0.46018 -8.22383,-0.61353 -4.99974,-0.38341 -3.99024,-0.28083 -8.7536,-0.73849 -2.73522,-0.2628 -5.50452,-0.47474 -8.20822,-0.99089 -0.43434,-0.0829 -0.861,-0.20195 -1.2915,-0.30293 z" /><path
         style="fill:#c3bdb1;stroke-width:0.132292"
         id="path5"
         d="m 220.33046,169.79768 c 3.67527,0.0116 7.34941,-0.0593 11.02368,-0.13572 2.26109,-0.091 4.51155,0.13552 6.75265,0.40072 0,0 -0.80769,-0.60133 -0.80769,-0.60133 v 0 c -2.24046,-0.25977 -4.48996,-0.47968 -6.74955,-0.38127 -3.68746,0.0849 -7.37517,0.1537 -11.06376,0.10392 z" /><path
         style="fill:#c3bdb1;stroke-width:0.132292"
         id="path6"
         d="m 322.61582,111.85244 c 0.44251,-0.0132 0.88529,-0.0193 1.32754,-0.0396 2.81136,-0.12888 5.61586,-0.35688 8.4287,-0.46539 1.84023,-0.071 3.68136,-0.11544 5.52204,-0.17315 2.1626,-0.0884 4.32522,-0.17678 6.48785,-0.26517 5.84004,-0.26556 11.66069,-0.80924 17.47927,-1.35473 0,0 -0.73131,-0.52073 -0.73131,-0.52073 v 0 c -5.80305,0.56722 -11.60893,1.12792 -17.4367,1.37919 -22.81539,0.86319 8.01648,-0.27521 -12.08495,0.38515 -2.83202,0.093 -5.6565,0.31787 -8.4877,0.42 -0.4482,0.0162 -0.89686,0.0158 -1.3453,0.0237 z" /><path
         style="fill:#c3bdb1;stroke-width:0.132292"
         id="path7"
         d="m 364.7305,98.096201 c 2.86419,0.07514 5.70714,-0.291751 8.55416,-0.52595 0.98327,-0.08089 1.96834,-0.137893 2.95254,-0.206838 3.41154,-0.207901 6.82789,-0.31283 10.24363,-0.421113 0,0 -0.77335,-0.558025 -0.77335,-0.558025 v 0 c -3.41855,0.115252 -6.83762,0.224991 -10.25289,0.41855 -0.99264,0.06415 -1.98628,0.114739 -2.97797,0.192452 -2.85967,0.224105 -5.71576,0.604629 -8.59245,0.486037 z" /><path
         style="fill:#c3bdb1;stroke-width:0.132292"
         id="path8"
         d="m 327.12842,101.53608 c 3.35547,-0.11894 6.70181,-0.46463 10.06268,-0.43333 1.12498,0.0105 2.24875,0.077 3.37312,0.11548 3.1681,0.16478 6.3191,0.53258 9.46857,0.897 0,0 -0.777,-0.57814 -0.777,-0.57814 v 0 c -3.14646,-0.35412 -6.29412,-0.7131 -9.45775,-0.8796 -1.12874,-0.0396 -2.25687,-0.10663 -3.38624,-0.11881 -3.38275,-0.0365 -6.75121,0.31014 -10.13053,0.38192 z" /><path
         style="fill:#c3bdb1;stroke-width:0.132292"
         id="path9"
         d="m 329.59891,129.91482 c 1.23338,0.11243 2.00938,0.19684 3.3424,0.23203 2.45618,0.0649 4.79179,-0.0102 7.25787,-0.0834 3.97973,-0.11815 7.34359,-0.25623 11.33911,-0.40937 6.76783,-0.15826 13.51719,-0.89774 20.29153,-0.80212 3.92573,0.0554 6.26118,0.26486 10.18112,0.52832 4.15393,0.30316 8.30265,0.66959 12.4501,1.04953 0,0 -0.76396,-0.56553 -0.76396,-0.56553 v 0 c -4.13335,-0.35951 -8.26749,-0.70994 -12.40539,-1.01396 -3.87416,-0.25922 -6.31264,-0.47385 -10.19355,-0.52887 -6.76616,-0.0959 -13.50454,0.66518 -20.26398,0.82506 -4.99314,0.1834 -6.47952,0.25368 -11.38479,0.37466 -3.55981,0.0878 -7.14234,0.20632 -10.6862,-0.23187 z" /><path
         style="fill:#c3bdb1;stroke-width:0.132292"
         id="path10"
         d="m 321.99666,143.79932 c 3.53505,-0.49544 7.0534,-1.09188 10.60673,-1.45574 1.21764,-0.12468 2.43816,-0.21927 3.65725,-0.32891 5.31188,-0.42688 10.64041,-0.58815 15.95742,-0.93006 2.46322,-0.15839 4.69545,-0.3598 7.14423,-0.56815 1.07627,-0.0303 2.15222,-0.10426 3.22887,-0.0911 2.33037,0.0285 4.84235,0.29185 7.15282,0.51861 2.48634,0.24403 4.97033,0.51141 7.45577,0.76421 0,0 -0.75512,-0.56038 -0.75512,-0.56038 v 0 c -2.48502,-0.25101 -4.9685,-0.5174 -7.45418,-0.76207 -2.34101,-0.23043 -4.81365,-0.49314 -7.17302,-0.51906 -1.07696,-0.0118 -2.15307,0.0648 -3.22961,0.0973 -2.66157,0.23439 -4.4134,0.40281 -7.12472,0.5784 -5.32027,0.34456 -10.65223,0.50401 -15.96779,0.92661 -1.2228,0.10798 -2.44695,0.20157 -3.6684,0.32394 -3.57581,0.35823 -7.11856,0.94541 -10.68072,1.40453 z" /><path
         style="fill:#c3bdb1;stroke-width:0.132292"
         id="path11"
         d="m 330.19502,157.09708 c 4.82179,-0.0252 9.61789,0.61714 14.42955,0.83507 1.66465,0.0754 3.33161,0.0869 4.9974,0.13035 5.76643,0.10033 11.5321,-0.16139 17.29822,-0.0488 2.10166,0.041 3.39796,0.11462 5.44915,0.21118 0.65111,0.0379 1.30238,0.0736 1.95336,0.11378 0.98817,0.061 1.91154,0.10196 2.88785,0.27289 1.72016,0.30117 3.38471,0.8407 5.04327,1.37177 0,0 -0.792,-0.61361 -0.792,-0.61361 v 0 c -1.66552,-0.52804 -3.33647,-1.06792 -5.06357,-1.36356 -0.98052,-0.16785 -1.88547,-0.20129 -2.87769,-0.25714 -0.64674,-0.0364 -1.29373,-0.0687 -1.94061,-0.10307 -2.01345,-0.0864 -3.36738,-0.15655 -5.42525,-0.18923 -5.75263,-0.0914 -11.50414,0.18867 -17.25705,0.0764 -1.67119,-0.0489 -3.34354,-0.0667 -5.01351,-0.14679 -4.84693,-0.23254 -9.67537,-0.8796 -14.53214,-0.90179 z" /><path
         style="fill:#c3bdb1;stroke-width:0.132292"
         id="path12"
         d="m 325.84397,178.42402 c 4.79346,-0.74518 9.6752,-1.00458 14.52351,-0.93502 2.06399,0.0296 4.12538,0.15831 6.18807,0.23746 6.85954,0.49985 13.71526,1.04112 20.57612,1.52275 0,0 -0.67805,-0.49986 -0.67805,-0.49986 v 0 c -6.86652,-0.47442 -13.72679,-1.01849 -20.59061,-1.53025 -2.07209,-0.0841 -4.14277,-0.21668 -6.21626,-0.25239 -4.89299,-0.0843 -9.8203,0.14662 -14.66357,0.86356 z" /><path
         style="fill:#c3bdb1;stroke-width:0.132292"
         id="path13"
         d="m 307.03427,170.64507 c 4.04664,-1.60293 8.33038,-2.5293 12.54971,-3.55405 3.44003,-0.82332 6.85917,-1.72844 10.2751,-2.64538 0,0 -0.78378,-0.53852 -0.78378,-0.53852 v 0 c -3.41286,0.92293 -6.82945,1.8322 -10.27054,2.64547 -4.2495,1.01936 -8.56229,1.93744 -12.646,3.5209 z" /><path
         style="fill:#c3bdb1;stroke-width:0.132292"
         id="path14"
         d="m 342.5055,124.55453 c 5.93812,0.22798 11.87312,-0.24189 17.73478,-1.19724 1.89516,-0.30888 3.77489,-0.70595 5.66235,-1.05893 7.07178,-1.6132 3.65273,-0.77504 10.2617,-2.49569 0,0 -0.74046,-0.50952 -0.74046,-0.50952 v 0 c -6.58704,1.73457 -3.17651,0.8926 -10.2367,2.50526 -1.88915,0.35002 -3.77031,0.74629 -5.66746,1.05008 -5.90349,0.94532 -11.88503,1.38562 -17.86054,1.09116 z" /><path
         style="fill:#c3bdb1;stroke-width:0.132292"
         id="path15"
         d="m 342.92624,95.184286 c 6.1038,0.336648 12.2139,0.406538 18.32544,0.401955 0,0 -0.76568,-0.556101 -0.76568,-0.556101 v 0 c -6.13796,0.01664 -12.27463,-0.06161 -18.40196,-0.457745 z" /><path
         style="fill:#c3bdb1;stroke-width:0.132292"
         id="path16"
         d="m 375.51592,110.00305 c 2.93603,-0.13258 5.87547,-0.1676 8.81383,-0.20988 0,0 -0.80053,-0.5798 -0.80053,-0.5798 v 0 c -2.95397,0.0456 -5.9082,0.0842 -8.86126,0.1736 z" /><path
         style="fill:#c3bdb1;stroke-width:0.132292"
         id="path17"
         d="m 312.14512,135.59707 c 0.34858,-0.0412 0.69572,-0.0975 1.04576,-0.12348 3.19828,-0.23736 6.42501,-0.13235 9.62687,-0.0836 2.77648,0.0422 6.58,0.12426 9.36209,0.18156 0,0 -0.73427,-0.53576 -0.73427,-0.53576 v 0 c -0.97435,-0.0197 -8.44132,-0.17125 -9.37186,-0.18794 -3.23284,-0.058 -6.48729,-0.17956 -9.71809,0.0331 -0.35584,0.0234 -0.70911,0.0764 -1.06368,0.11456 z" /></g></g></svg>
